<svg width="328" height="50" viewBox="0 0 328 50" fill="none" xmlns="http://www.w3.org/2000/svg">
<path d="M51.5195 12.7949C54.9513 12.795 57.9454 13.5559 60.502 15.0771C63.0586 16.5754 65.0514 18.6843 66.4795 21.4043C67.9306 24.1243 68.6562 27.3174 68.6562 30.9824C68.6562 34.6473 67.9305 37.8629 66.4795 40.6289C65.0514 43.3719 63.0586 45.504 60.502 47.0254C57.9454 48.5466 54.9513 49.3076 51.5195 49.3076C48.0877 49.3076 45.0816 48.5466 42.502 47.0254C39.9223 45.5041 37.9183 43.3719 36.4902 40.6289C35.0622 37.8629 34.3477 34.6473 34.3477 30.9824C34.3477 27.3174 35.0622 24.1243 36.4902 21.4043C37.9413 18.6844 39.9454 16.5754 42.502 15.0771C45.0816 13.5559 48.0877 12.7949 51.5195 12.7949ZM172.264 12.8994C175.304 12.8995 177.964 13.4523 180.244 14.5586C182.547 15.665 184.344 17.2212 185.634 19.2266C186.924 21.232 187.569 23.5833 187.569 26.2803V48.4092H179.104V43.0068C178.009 44.8597 176.559 46.3382 174.751 47.4404C172.747 48.6391 170.444 49.2383 167.841 49.2383C165.63 49.2383 163.66 48.7775 161.933 47.8555C160.205 46.9335 158.847 45.6652 157.856 44.0518C156.866 42.4382 156.37 40.594 156.37 38.5195C156.37 35.4079 157.258 32.9875 159.031 31.2588C160.828 29.5302 163.407 28.562 166.77 28.3545L176.029 27.7324C177.25 27.6402 178.068 27.421 178.482 27.0752C178.897 26.7294 179.104 26.1301 179.104 25.2773V25.1387C179.104 23.387 178.459 21.9691 177.169 20.8857C175.902 19.7796 174.347 19.2266 172.505 19.2266C168.198 19.2267 165.814 21.0013 165.354 24.5508H156.646C156.808 22.1999 157.557 20.1603 158.893 18.4316C160.252 16.6798 162.071 15.3197 164.352 14.3516C166.632 13.3834 169.269 12.8994 172.264 12.8994ZM220.416 2.83594C225.506 2.83597 229.618 4.1041 232.75 6.63965C235.906 9.15217 237.702 12.6212 238.14 17.0469H229.537C229.146 14.6037 228.201 12.8059 226.704 11.6533C225.207 10.4778 223.076 9.8897 220.312 9.88965C217.733 9.88965 215.671 10.4545 214.128 11.584C212.585 12.7135 211.812 14.2231 211.812 16.1133C211.812 17.6345 212.354 18.8098 213.437 19.6396C214.519 20.4464 216.12 20.9769 218.239 21.2305L224.389 21.957C229.318 22.5102 232.981 23.9047 235.376 26.1406C237.771 28.3765 238.969 31.5112 238.969 35.5449C238.969 38.2418 238.266 40.6044 236.861 42.6328C235.456 44.6382 233.476 46.1943 230.919 47.3008C228.385 48.4072 225.414 48.9609 222.005 48.9609C216.5 48.9609 212.066 47.6584 208.703 45.0537C205.363 42.4259 203.451 38.9216 202.968 34.542H211.641C212.078 37.0084 213.149 38.8414 214.854 40.04C216.558 41.2386 218.965 41.8379 222.074 41.8379C224.585 41.8379 226.612 41.273 228.155 40.1436C229.698 38.9911 230.47 37.4812 230.47 35.6143C230.47 32.5024 228.109 30.7048 223.387 30.2207L216.788 29.5293C212.435 29.0683 209.095 27.7193 206.769 25.4834C204.465 23.2475 203.314 20.228 203.313 16.4248C203.313 12.2296 204.846 8.92131 207.909 6.50098C210.973 4.05776 215.142 2.83594 220.416 2.83594ZM139.068 12.7949C142.523 12.7949 145.379 13.9823 147.637 16.3564C149.894 18.7306 151.022 22.1534 151.022 26.625V48.4082H142.593V28.4238C142.593 25.6808 141.982 23.6861 140.762 22.4414C139.541 21.1737 137.894 20.5401 135.821 20.54C134.531 20.54 133.368 20.8624 132.331 21.5078C131.295 22.1301 130.466 23.0064 129.844 24.1357C129.245 25.2422 128.945 26.5103 128.945 27.9395V48.4082H120.48V28.4238C120.48 25.6808 119.87 23.6861 118.649 22.4414C117.452 21.1738 115.816 20.54 113.743 20.54C112.453 20.5401 111.29 20.8625 110.254 21.5078C109.217 22.1302 108.4 23.0063 107.801 24.1357C107.202 25.2422 106.902 26.5103 106.902 27.9395V48.4082H98.4033V13.832H106.902V18.8027C108.076 17.0173 109.492 15.6135 111.152 14.5928C113.064 13.3942 115.01 12.7949 116.991 12.7949C120.446 12.7949 123.302 13.9822 125.56 16.3564C126.621 17.4729 127.433 18.8212 127.995 20.4014C128.12 20.1423 128.252 19.8882 128.393 19.6406C129.659 17.451 131.249 15.7683 133.16 14.5928C135.095 13.3942 137.065 12.795 139.068 12.7949ZM252.864 48.4082H244.364V23.5566H252.864V48.4082ZM278.104 12.7949C281.812 12.7949 284.852 13.9822 287.225 16.3564C289.62 18.7306 290.817 22.1534 290.817 26.625V48.4082H282.354V28.4238C282.354 25.6808 281.673 23.6861 280.314 22.4414C278.979 21.1738 277.171 20.5401 274.891 20.54C273.463 20.54 272.184 20.8626 271.056 21.5078C269.927 22.1302 269.028 23.0063 268.36 24.1357C267.692 25.2422 267.358 26.5103 267.358 27.9395V48.4082H258.859V13.832H267.358V19.0391C268.607 17.141 270.137 15.6581 271.953 14.5928C273.957 13.3941 276.008 12.7949 278.104 12.7949ZM308.639 13.832H314.442V20.7471H308.639V36.9639C308.639 38.5773 308.926 39.6839 309.502 40.2832C310.101 40.8594 310.908 41.1475 311.921 41.1475H314.442V48.4082H310.78C308.753 48.4082 306.934 48.0394 305.321 47.3018C303.732 46.5641 302.477 45.4344 301.556 43.9131C300.658 42.3919 300.208 40.4675 300.208 38.1396V20.7471H294.473V13.832H300.208V4.84277H308.639V13.832ZM31.5439 11.4102H8.49902V23.3389H29.5742V31.0146H8.49902V48.4062H0V3.42285H31.5439V11.4102ZM93.7207 21.8525H91.7168C89.8512 21.8526 88.2155 22.1749 86.8105 22.8203C85.4288 23.4657 84.3465 24.3532 83.5635 25.4824C82.8034 26.6119 82.4229 27.9145 82.4229 29.3896V48.4062H73.9238V13.8311H82.4229V19.4639C83.515 17.6079 84.8269 16.1443 86.3613 15.0752C88.2039 13.7844 90.0815 13.1387 91.9932 13.1387H93.7207V21.8525ZM328 48.4023H318.568V38.998H328V48.4023ZM169.88 33.8867C166.563 34.0942 164.904 35.4887 164.904 38.0703C164.904 39.4533 165.457 40.5598 166.562 41.3896C167.668 42.2195 169.119 42.6348 170.916 42.6348C172.459 42.6348 173.853 42.2892 175.097 41.5977C176.34 40.8831 177.319 39.9141 178.033 38.6924C178.747 37.4708 179.104 36.0881 179.104 34.5439V33.3398L169.88 33.8867ZM51.5195 20.1602C48.8477 20.1602 46.7516 21.105 45.2314 22.9951C43.7113 24.8853 42.9512 27.5479 42.9512 30.9824C42.9512 34.4629 43.7113 37.1601 45.2314 39.0732C46.7516 40.9862 48.8479 41.9424 51.5195 41.9424C54.1911 41.9423 56.2642 40.9863 57.7383 39.0732C59.2354 37.1601 59.9833 34.4629 59.9834 30.9824C59.9834 27.548 59.2353 24.8853 57.7383 22.9951C56.2642 21.1051 54.1912 20.1603 51.5195 20.1602ZM198.991 9.37012L195.19 20.3311H189.145L195.122 9.37012H189.56V0H198.991V9.37012ZM253.424 9.37012L249.623 20.3311H243.577L249.554 9.37012H243.991V0H253.424V9.37012Z" fill="#1D1D1D"/>
</svg>
